# xmcd
#
# Track frame offsets:
#	150
#	36660
#	72937
#	107710
#	142962
#	179122
#	215280
#	248790
#
# Disc length: 3819 seconds
#
# Revision: 1
# Processed by: cddbd v1.4PL0 Copyright (c) Steve Scherf et al.
# Submitted via: EasyCDDAExtractor 5.0.7
#
DISCID=7a0ee908
DTITLE=Huong Lan and Chi Tam - Tan Co Giao Duyen Tinh Ca 3
DYEAR=1900
DGENRE=VongCo
TTITLE0=Dua Em Vao Ha
TTITLE1=Mua Sau Rieng
TTITLE2=Han Tha La
TTITLE3=Thanh Pho Buon
TTITLE4=Tha Nhu Giot Mua
TTITLE5=Ga Chieu
TTITLE6=Tinh Tham Duyen Que
TTITLE7=Tinh Bo Vo
EXTD=
EXTT0=
EXTT1=
EXTT2=
EXTT3=
EXTT4=
EXTT5=
EXTT6=
EXTT7=
PLAYORDER=
